<?xml version="1.0" encoding="UTF-8"?>
<svg xmlns="http://www.w3.org/2000/svg" id="Layer_1" data-name="Layer 1" viewBox="0 0 24 24">
  <path d="m16.531,18.506l7.349,2.578-.992,2.831-10.889-3.82-10.889,3.82-.992-2.831,7.349-2.578L.119,15.928l.992-2.831,10.889,3.82,10.889-3.82.992,2.831-7.349,2.578ZM6,8c0-1.725,1-3.06,1.995-4.087,0,0,.681,2.087,1.287,2.087,1.263,0,.897-3.898,2.718-6,1.895,1.895,6,4.526,6,8,0,3.314-2.686,6-6,6s-6-2.686-6-6Zm4.585,3.414c.781.781,2.048.781,2.829,0s.781-2.048,0-2.829h0l-1.415-1.415-1.415,1.415c-.781.781-.781,2.048,0,2.829Z"/>
</svg>
