<svg id="Layer_1" viewBox="0 0 24 24" xmlns="http://www.w3.org/2000/svg" data-name="Layer 1"><path d="m22.971 22.33c-5.703-15.792-21.154-21.25-21.309-21.303-.214-.072-.443.004-.571.186s-.12.426.019.6c6.105 7.631 12.586 13.718 21.063 21.065.172.149.423.163.61.034.188-.129.265-.368.188-.582zm-19.821-19.596c3.96 1.834 13.406 7.175 18.125 18.038-7.118-6.225-12.809-11.63-18.125-18.038zm19.024 10.144c.165.143.403.161.588.048.186-.114.275-.335.224-.546-2.194-8.889-11.269-11.34-11.36-11.364-.212-.052-.436.034-.551.219s-.097.425.046.591c3.358 3.904 7.076 7.623 11.053 11.052zm-.686-1.931c-2.937-2.62-5.721-5.398-8.307-8.289 2.373 1.056 6.453 3.493 8.307 8.289zm-19.874-.934c-.211-.05-.433.043-.545.232-.111.188-.087.427.059.589 3.672 4.081 7.722 8.131 12.036 12.036.166.15.41.172.599.055s.278-.345.219-.559c-2.775-9.988-12.272-12.33-12.368-12.353zm1.59 1.614c2.512 1.068 6.982 3.665 9.202 9.194-3.248-3.005-6.332-6.086-9.202-9.194z"/></svg>