<svg id="Layer_1" viewBox="0 0 24 24" xmlns="http://www.w3.org/2000/svg" data-name="Layer 1"><path d="m19.22 9.78c0 3.417-.764 5.877-1.546 7.496-.257.009-4.561-1.114-5.865-1.074-1.352.042-5.397 1.293-5.506 1.066-.781-1.619-1.542-4.077-1.542-7.488 0-2.07 1.64-3.87 3.81-4.2.484-.075 1.262.427 1.998.391.54-.026 1.058.746 1.422.746s.878-.405 1.416-.379c.738.036 1.518-.833 2.004-.758 2.17.33 3.81 2.13 3.81 4.2z" opacity=".5"/><path d="m11.992 7.372c-.957 0-1.913-.026-2.155-.078-1.258-.271-2.677-1.809-2.949-2.114-.045-.05-.084-.105-.118-.164-.277-.478-.122-1.104.356-1.38.452-.26 1.014-.142 1.308.272.579.635 1.431 1.346 1.825 1.431.358.043 3.106.044 3.505-.007.362-.08 1.244-.822 1.823-1.466.316-.369.865-.473 1.288-.213.472.288.627.892.338 1.363-.03.051-.081.123-.12.167-.272.305-1.691 1.84-2.947 2.112-.241.052-1.198.078-2.155.078z"/><path d="m22.796 8.148c-.347-.456-2.175-2.731-4.115-2.731-.785 0-1.561.357-2.303 1.061-.278.264-.381.665-.264 1.03l.083.258c-2.379 1.272-3.782 3.968-3.504 6.743-.454-.006-.952-.006-1.406 0 .277-2.76-1.107-5.445-3.463-6.725l.076-.229c.122-.364.023-.767-.253-1.034-.756-.733-1.546-1.105-2.348-1.105-1.945 0-3.756 2.279-4.099 2.736-.268.355-.268.846 0 1.202.343.457 2.154 2.735 4.099 2.735.207 0 .416-.025.623-.076.334-.082.603-.329.711-.656l.536-1.61c.23.159.453.328.655.523-.255.181-.448.435-.448.771 0 .552.448 1 1 1h.563c.331.879.424 1.85.223 2.826-1.048.53-2.044 1.57-2.233 1.792l-.628.608c.1.22.228.442.328.632.03.07.07.13.1.19.09.17.2.33.32.48.11.15.23.29.36.43l.041.047c1.391 1.443 2.316 1.505 4.539 1.463 2.372.083 3.603-.211 4.94-1.94.12-.15.23-.31.32-.48.03-.06.07-.12.1-.19.1-.19.224-.414.324-.624l-.584-.576c-.222-.255-1.223-1.301-2.273-1.832-.201-.977-.108-1.947.222-2.826h.563c.553 0 1-.448 1-1 0-.336-.192-.59-.447-.771.206-.199.435-.374.671-.536l.516 1.612c.105.332.377.584.715.667.206.05.416.076.623.076 1.94 0 3.769-2.274 4.115-2.73.272-.358.272-.853 0-1.211z"/></svg>