<?xml version="1.0" encoding="UTF-8"?>
<svg xmlns="http://www.w3.org/2000/svg" id="Layer_1" data-name="Layer 1" viewBox="0 0 24 24">
  <path d="m24,4.295l-2.199-.943c-.33-1.307-1.092-2.32-2.2-2.875-1.074-.539-2.293-.627-3.435-.247-1.141.379-2.065,1.18-2.591,2.228l-1.047,1.992c-2.894-1.225-5.09-2.89-5.116-2.91L5.406.006l-.388,2.494c-.008.052-.037.255-.058.579-.904-.618-1.444-1.093-1.458-1.106L1.36.05l-.349,2.857c-.039.316-.776,6.935,3.988,12.199l-5,.671v1.312c0,2.606,1.338,5.767,5.093,6.825l.604.17,5.066-2.887c.14.046.274.093.406.139.897.312,1.825.634,3.581.634,3.998,0,7.25-3.252,7.25-7.25,0-1.703-.007-5.726-.011-8.064l2.011-.862v-1.5Zm-9.25,14.676c-2.006,0-4.383-1-4.383-1l-5.021,2.862c-1.337-.561-1.922-1.57-2.171-2.454l5.832-.783,1.089-2.068-1.03-.766c-3.547-2.641-4.669-6.216-4.997-8.675,2.043,1.278,5.115,2.754,8.525,2.868l.94.032,2.71-5.156c.18-.358.488-.625.868-.751.38-.125.786-.097,1.145.082.634.318.729,1.23.729,1.746,0,0,.015,8.052.015,9.816,0,2.343-1.906,4.25-4.25,4.25Z"/>
</svg>
