<?xml version="1.0" encoding="UTF-8"?>
<svg xmlns="http://www.w3.org/2000/svg" id="Layer_1" data-name="Layer 1" viewBox="0 0 24 24">
  <path d="M22.714,1.917c-.1-.249-.295-.448-.542-.552-.186-.078-1.903-.738-4.638,.223-.521,.183-.795,.754-.612,1.275,.183,.521,.753,.796,1.275,.612,.488-.171,.926-.275,1.311-.335l-2.484,2.465c-3.851-3.189-9.661-3.188-13.594,.119-.677,.569-1.351,1.156-1.987,1.74-.233,.214-.352,.525-.319,.839,.032,.314,.211,.595,.483,.757,1.463,.87,4.189,2.633,6.816,5.082l-2.351,2.333c-.826-.168-2.351-.275-4.404,.447-.521,.183-.795,.754-.612,1.275,.183,.521,.752,.795,1.275,.612,.698-.245,1.306-.369,1.816-.422l-.805,.799c-.392,.389-.394,1.022-.005,1.415,.196,.197,.453,.295,.71,.295,.255,0,.509-.097,.705-.29l.825-.819c-.053,.506-.178,1.11-.425,1.804-.186,.52,.086,1.092,.606,1.278,.111,.04,.225,.059,.336,.059,.411,0,.796-.255,.942-.665,.721-2.022,.616-3.544,.45-4.37l2.36-2.342c2.478,2.61,4.254,5.311,5.131,6.759,.162,.268,.44,.444,.751,.477,.035,.003,.069,.005,.104,.005,.275,0,.54-.114,.73-.317,.59-.631,1.182-1.298,1.754-1.967,3.345-3.906,3.346-9.673,.13-13.494l2.488-2.47c-.06,.38-.165,.813-.337,1.295-.186,.52,.086,1.092,.606,1.278,.111,.04,.225,.059,.336,.059,.411,0,.796-.255,.942-.665,.93-2.607,.358-4.285,.234-4.594ZM3.783,8.055c.308-.269,.621-.536,.934-.799,3.144-2.645,7.758-2.693,10.88-.233l-5.753,5.709c-2.19-2.05-4.446-3.644-6.061-4.678Zm13.013,11.152c-.269,.315-.543,.629-.818,.939-1.038-1.595-2.643-3.829-4.714-6.005l5.756-5.713c2.49,3.085,2.446,7.661-.224,10.778Z"/>
</svg>
