<svg id="Layer_1" viewBox="0 0 24 24" xmlns="http://www.w3.org/2000/svg" data-name="Layer 1"><path d="m22.566 22.824c-.375.257-.876.23-1.222-.068-8.094-7.016-14.284-12.831-20.125-20.131-.277-.347-.293-.836-.036-1.2.255-.364.721-.515 1.142-.37.614.21 15.1 5.331 20.616 20.606.154.428 0 .907-.374 1.164zm-1.274-10.479c.334.278.809.309 1.174.078.367-.231.543-.672.436-1.093-2.056-8.062-10.277-10.212-10.627-10.3-.425-.108-.871.076-1.099.451s-.184.855.108 1.183c3.043 3.422 6.409 6.679 10.007 9.681zm-19.063-2.319c-.43-.099-.867.087-1.09.464-.223.376-.176.853.117 1.178 3.38 3.756 7.105 7.482 11.072 11.072.33.3.82.343 1.196.11.379-.234.558-.69.438-1.119-2.627-9.46-11.362-11.617-11.733-11.705z"/></svg>