<svg id="Layer_1" viewBox="0 0 24 24" xmlns="http://www.w3.org/2000/svg" data-name="Layer 1"><path d="m22.112 1.888c-1.194-1.195-3.508-1.18-7.283.044-4.011 1.3-7.667 4.09-9.573 6.075-.092.092-2.258 2.302-2.258 6.16 0 2.141.412 3.73 1.291 4.836l-3.145 3.145c-.195.195-.195.512 0 .707s.512.195.707 0l3.145-3.145c1.107.879 2.695 1.291 4.837 1.291 3.858 0 6.068-2.166 6.16-2.258.002-.002.005-.005.007-.007 1.8-1.875 4.902-5.971 6.068-9.566 1.224-3.774 1.239-6.088.044-7.283zm-18.114 12.279c0-3.426 1.947-5.435 1.973-5.46 1.977-2.061 5.579-4.661 9.167-5.824 2.565-.685 4.864-1.385 6.267-.288.88.687.796 2.507.027 5.224-.511-.34-1.483-.82-2.93-.82-2.183 0-3.307 1.1-3.354 1.147l-10.154 10.154c-.693-.929-.995-2.276-.995-4.132zm11.285 3.872c-.082.079-2.058 1.962-5.45 1.962-1.857 0-3.204-.302-4.133-.995l5.114-5.114c.146-.093 1.461-.893 3.936-.893 2.167 0 3.443.614 3.828.831-1.144 1.731-2.388 3.262-3.296 4.208zm3.835-5.052c-.46-.27-1.908-.987-4.368-.987-.899 0-1.648.101-2.281.237l3.381-3.381c.036-.035.904-.857 2.65-.857 1.64 0 2.495.717 2.624.834-.003.01-.005.019-.009.029-.439 1.352-1.171 2.778-1.999 4.125z"/></svg>