<?xml version="1.0" encoding="UTF-8"?>
<svg xmlns="http://www.w3.org/2000/svg" id="Layer_1" data-name="Layer 1" viewBox="0 0 24 24">
  <path d="m10.5,2c1.299,1.831,3.09,2,4.167,2,1.872,0,3.333-1.5,3.333-1.5l2,2.5c-1.306,1.279-2.756,1.82-4.256,1.82-3,0-4.417-2.253-5.244-4.82Zm4,1c.828,0,1.5-.672,1.5-1.5s-.672-1.5-1.5-1.5-1.5.672-1.5,1.5.672,1.5,1.5,1.5Zm4.25,5c-1.972,0-3.054,1.082-3.923,1.951-.471.471-.916.916-1.498,1.207-.261.131-1.011.226-1.951.207.384-.708.622-1.505.622-2.365,0-2.757-2.243-5-5-5-2.469,0-4.787,2.174-5.043,2.422l2.083,2.158c.538-.516,1.97-1.58,2.959-1.58,1.103,0,2,.897,2,2s-.897,2-2,2h-1v3h.5c1.93,0,3.5,1.57,3.5,3.5s-1.57,3.5-3.5,3.5c-4,0-6.5-5.532-6.5-7.462v3.962c0,3.584,2.916,6.5,6.5,6.5,3.552-.038,6.5-2.939,6.5-6.5,0-1.141-.298-2.213-.816-3.146.966-.043,1.857-.197,2.487-.512,1.018-.509,1.717-1.208,2.277-1.77.764-.763,1.101-1.072,1.802-1.072,1.062,0,2.25,1.711,2.25,4,0,2.626-1.258,4-2.5,4-2.25,0-3.61-1.939-4-3-.365,2.554.75,6,4,6,2.716-.031,5.5-2.435,5.5-7,0-3.925-2.306-7-5.25-7Z"/>
</svg>
