<svg id="Layer_1" viewBox="0 0 24 24" xmlns="http://www.w3.org/2000/svg" data-name="Layer 1"><path d="m20.949 3.497c-.057-.278-.23-.519-.475-.662-.129-.075-3.2-1.835-8.381-1.835-5.119-.071-8.499 1.769-8.567 1.835-.245.144-.418.384-.475.662-.534 2.601-2.094 12.772.038 15.037 2.346 2.492 7.986 4.233 8.621 4.424.188.055.392.056.58 0 .635-.19 6.275-1.932 8.622-4.424 2.131-2.265.571-12.438.037-15.037zm-1.096 6.503h-6.854v-6.976c3.126.131 5.262.969 6.086 1.348.372 1.913.623 3.852.768 5.628zm-8.853-6.97v6.97h-6.853c.145-1.776.396-3.714.768-5.627.826-.38 2.966-1.2 6.085-1.343zm-6.973 8.97h6.972v8.617c-2.133-.753-5.133-2.051-6.454-3.454-.433-.46-.619-2.481-.518-5.163zm15.428 5.163c-1.321 1.404-4.326 2.704-6.458 3.456v-8.619h6.976c.101 2.682-.085 4.703-.518 5.163z"/></svg>