<?xml version="1.0" encoding="UTF-8"?>
<svg xmlns="http://www.w3.org/2000/svg" id="Layer_1" data-name="Layer 1" viewBox="0 0 24 24">
  <path d="M22.936,11.755c-.039-.07-.981-1.731-2.495-3.199,0-2.319-.516-4.027-.538-4.099-.05-.163-.179-.289-.343-.335-.078-.021-1.923-.509-4.037-.505-1.646-1.639-3.223-2.483-3.289-2.519-.15-.079-.329-.078-.478,.005-.07,.039-1.737,.978-3.214,2.486-2.327,0-4.041,.514-4.113,.535-.163,.05-.29,.179-.335,.342-.022,.077-.535,1.916-.507,4.021-1.646,1.64-2.493,3.21-2.528,3.276-.081,.15-.079,.332,.005,.48,.039,.07,.981,1.731,2.495,3.199,0,2.319,.516,4.027,.538,4.099,.05,.163,.179,.289,.343,.335,.078,.021,1.94,.537,4.037,.505,1.646,1.639,3.223,2.483,3.289,2.519,.073,.039,.153,.058,.234,.058,.084,0,.168-.021,.244-.063,.07-.039,1.737-.978,3.214-2.486,2.327,0,4.041-.514,4.113-.535,.163-.05,.29-.179,.335-.342,.022-.077,.535-1.916,.507-4.021,1.646-1.64,2.493-3.21,2.528-3.276,.081-.15,.079-.332-.005-.48Zm-3.229,3.049c-.134,.134-.266,.451-.266,.64,0,1.562-.292,2.972-.428,3.545-.55,.136-1.896,.421-3.555,.421-.19,0-.507,.131-.641,.265-1.11,1.106-2.319,1.897-2.821,2.206-.485-.291-1.639-1.038-2.812-2.206-.134-.134-.451-.265-.641-.265-1.57,0-2.986-.291-3.561-.427-.137-.548-.422-1.889-.422-3.539,0-.19-.133-.508-.266-.64-1.109-1.104-1.902-2.306-2.213-2.808,.293-.484,1.042-1.632,2.214-2.8,.134-.134,.266-.451,.266-.64,0-1.562,.292-2.972,.428-3.545,.55-.136,1.896-.421,3.555-.421,.19,0,.507-.131,.641-.265,1.11-1.106,2.319-1.897,2.821-2.206,.485,.291,1.639,1.038,2.812,2.206,.134,.134,.451,.265,.641,.265,1.57,0,2.986,.291,3.561,.427,.137,.548,.422,1.889,.422,3.539,0,.19,.133,.508,.266,.64,1.109,1.104,1.902,2.306,2.213,2.808-.293,.484-1.042,1.632-2.214,2.8Z"/>
</svg>
