<?xml version="1.0" encoding="UTF-8"?>
<svg xmlns="http://www.w3.org/2000/svg" id="Layer_1" data-name="Layer 1" viewBox="0 0 24 24">
  <path d="M12,1.075C7.278,1.075,1,2.208,1,12s6.278,10.925,11,10.925,11-1.133,11-10.925S16.722,1.075,12,1.075Zm0,3c3.218,0,5.639,.564,6.935,2.782-1.435,.743-4.059,1.15-7.171,1.07-3.08-.081-5.451-.6-6.673-1.116,1.303-2.181,3.712-2.737,6.908-2.737ZM4.013,12.702c2.105,.856,4.019,2.978,4.405,6.85-2.652-.699-4.251-2.547-4.405-6.85Zm11.565,6.851c.411-3.845,2.318-5.964,4.408-6.828-.159,4.289-1.759,6.131-4.408,6.828Z"/>
</svg>
