<?xml version="1.0" encoding="UTF-8"?>
<svg xmlns="http://www.w3.org/2000/svg" id="Layer_1" data-name="Layer 1" viewBox="0 0 24 24">
  <path d="M12,1C6.878,1,1,2.25,1,12s5.878,11,11,11,11-1.25,11-11S17.122,1,12,1Zm5.4,11c0,2.467-.347,3.815-1.188,4.548l-1.719-2.567,.571-1.757,2.326-.879c.006,.209,.009,.427,.009,.654Zm-10.8,0c0-.226,.003-.443,.009-.651l2.328,.88,.574,1.767-1.714,2.56c-.848-.731-1.197-2.081-1.197-4.557Zm4.729,1.12l-.415-1.276,1.085-.788,1.085,.788-.415,1.276h-1.342Zm3.08-2.786l-1.409-1.024v-2.697c2.436,.076,3.698,.529,4.173,2.677l-2.763,1.044Zm-3.409-3.721v2.697l-1.413,1.026-2.761-1.043c.474-2.151,1.736-2.605,4.173-2.68Zm.166,8.507h1.683l1.452,2.169c-.647,.089-1.409,.111-2.301,.111-.886,0-1.644-.022-2.287-.109l1.453-2.171Z"/>
</svg>
