<svg id="Layer_1" viewBox="0 0 24 24" xmlns="http://www.w3.org/2000/svg" data-name="Layer 1"><path d="m9.38 11c-.839-.733-1.38-1.798-1.38-3 0-1.15.667-2.04 1.33-2.725 0 0 .454 1.391.858 1.391.842 0 .598-2.599 1.812-4 1.263 1.263 4 3.017 4 5.333 0 1.202-.541 2.267-1.38 3h-5.241zm14.62 3.286s-1.18-.641-2.962-.972c.969-.157 2.045-.672 2.514-1.846.962-2.408.077-5.619.077-5.619s-1.208.454-2.489 1.61c.636-1.051 1.177-2.57.551-3.829-1.151-2.316-4.191-3.63-4.191-3.63s-1.385 3.885.674 7.907c.683 4.483-.731 7.369-2.087 9.026-.72.88-1.558 1.559-2.385 2.05l.798-5.984h-5l.798 5.984c-.826-.491-1.665-1.17-2.385-2.05-1.357-1.658-2.77-4.543-2.087-9.026 2.059-4.022.674-7.907.674-7.907s-3.04 1.314-4.191 3.63c-.626 1.259-.085 2.779.551 3.829-1.28-1.155-2.489-1.609-2.489-1.609s-.885 3.211.077 5.619c.469 1.174 1.545 1.688 2.514 1.846-1.782.331-2.962.972-2.962.972-.051-.007 2.152 3.106 4.488 3.616-1.577.945-2.488 1.973-2.488 1.973s1.989 2.063 4.936 2.076c-.615 1.009-.891 1.765-.891 1.765s3.426.773 5.955-.254c2.529 1.028 5.955.254 5.955.254s-.276-.756-.891-1.765c2.947-.013 4.936-2.076 4.936-2.076s-.911-1.027-2.488-1.973c2.322-.498 4.558-3.64 4.488-3.616z"/></svg>