<svg id="Layer_1" viewBox="0 0 24 24" xmlns="http://www.w3.org/2000/svg" data-name="Layer 1"><path d="m6.898 4.895c-.063-1.297.1-2.924.106-2.992.052-.511.482-.899.995-.899.73 0 1.617.581 2.399 1.342.412-.571.826-.986.901-1.059.389-.381 1.011-.381 1.399 0 .075.073.49.488.901 1.059.782-.761 1.67-1.342 2.399-1.342.513 0 .943.389.995.899.007.069.17 1.696.106 2.994-.061 1.228-.102 2.657-.102 2.66v2.445c0 3.411-1.589 5-5 5s-5-1.589-5-5v-2.461c-.003-.087-.044-1.455-.102-2.644zm8.102 5.105v-1.241c-.744.123-1.773.241-3 .241s-2.256-.118-3-.241v1.241c0 2.299.701 3 3 3s3-.701 3-3zm-6.106-6.326c-.012.374-.015.767.002 1.124.032.667.06 1.395.078 1.925.647.124 1.711.277 3.025.277s2.378-.153 3.025-.277c.019-.531.046-1.258.078-1.926.018-.357.015-.752.003-1.127-.273.255-.584.587-.895 1.004-.224.3-.594.449-.967.389-.37-.062-.673-.325-.788-.682-.082-.256-.257-.554-.458-.835-.2.281-.376.58-.458.835-.114.357-.418.62-.788.682-.372.061-.743-.089-.967-.389-.31-.415-.618-.746-.894-1zm10.253 19.315c.546-.081.923-.59.842-1.137-.594-3.992-3.133-5.852-7.989-5.852s-7.395 1.86-7.989 5.852c-.081.547.296 1.056.842 1.137.541.075 1.055-.296 1.136-.842.37-2.489 1.534-4.147 6.011-4.147s5.641 1.658 6.011 4.147c.079.549.602.924 1.137.842z"/></svg>