<svg id="Layer_1" viewBox="0 0 24 24" xmlns="http://www.w3.org/2000/svg" data-name="Layer 1"><path d="m22.997 13.484c-.01-.118-.056-.226-.127-.32-1.189-1.31-2.989-2.42-4.87-3.028v-5.636c-.014-.131-.053-.26-.149-.355-1.82-1.906-4.124-2.756-5.738-3.132-.075-.018-.152-.018-.228 0-1.614.376-3.918 1.226-5.737 3.131-.095.096-.136.225-.15.356v5.637c-1.88.607-3.681 1.717-4.87 3.028-.076.098-.118.213-.13.336v6c0 .128.049.251.138.345 1.622 1.705 3.241 2.674 5.249 3.142.075.018.152.018.228 0 1.512-.353 3.629-1.12 5.386-2.781 1.758 1.662 3.875 2.429 5.387 2.781.074.018.152.018.227 0 2.007-.468 3.626-1.437 5.249-3.142.088-.093.138-.216.138-.345v-6c0-.005-.003-.01-.003-.016zm-11.497-5.602v4.948c-1.776-.514-3.351-1.397-4.5-2.552v-4.669c1.275 1.022 2.872 1.833 4.5 2.273zm5.5 2.396c-1.149 1.155-2.724 2.037-4.5 2.552v-4.948c1.627-.44 3.225-1.251 4.5-2.273zm-10.629.789c1.427 1.402 3.104 2.196 4.515 2.641-1.255 1.074-2.797 1.884-4.374 2.275-1.828-.539-3.201-1.348-4.305-2.486 1.075-1.041 2.609-1.939 4.164-2.43zm.629 5.801c1.629-.445 3.198-1.287 4.5-2.394v4.804c-1.149 1.155-2.724 2.038-4.5 2.552zm5.5-2.394c1.302 1.107 2.871 1.948 4.5 2.394v4.962c-1.776-.514-3.351-1.397-4.5-2.552zm4.992 1.51c-1.579-.39-3.123-1.201-4.379-2.276 1.411-.445 3.088-1.239 4.515-2.641 1.556.492 3.09 1.39 4.165 2.431-1.168 1.21-2.479 1.983-4.301 2.486zm-5.492-13.97c1.866.454 3.525 1.334 4.764 2.488-1.276 1.143-3.011 2.055-4.764 2.484-1.753-.429-3.488-1.341-4.765-2.484 1.239-1.153 2.898-2.034 4.765-2.488zm-10 12.677c1.079.956 2.386 1.658 4 2.163v4.97c-1.473-.453-2.742-1.238-4-2.526zm16 7.133v-4.952c1.604-.474 2.887-1.165 4-2.165v4.591c-1.259 1.288-2.527 2.073-4 2.526z"/></svg>