<?xml version="1.0" encoding="UTF-8"?>
<svg xmlns="http://www.w3.org/2000/svg" id="Layer_1" data-name="Layer 1" viewBox="0 0 24 24">
  <path d="M22.261,6.336c-3.047-2.188-5.823-3.402-9.667-5.082l-.194-.085c-.255-.111-.546-.111-.801,0l-.202,.088C7.558,2.936,4.783,4.149,1.738,6.336c-.038,.027-.073,.057-.106,.089,3.19,2.211,6.246,3.558,10.369,5.36,4.121-1.801,7.178-3.148,10.367-5.36-.033-.032-.069-.062-.106-.089Z"/>
  <path d="M1,13.162c0,3.806,.308,4.964,.37,5.158,.068,.214,.207,.399,.393,.525,2.956,1.996,6.473,3.535,9.237,4.069V13.529c-3.845-1.681-6.789-2.988-9.833-5.004-.084,1.024-.167,2.563-.167,4.637Z"/>
  <path d="M22.833,8.525c-3.045,2.017-5.989,3.325-9.833,5.005v9.384c2.765-.534,6.282-2.073,9.237-4.069,.187-.126,.325-.311,.393-.525,.062-.194,.37-1.352,.37-5.158,0-2.074-.083-3.614-.167-4.638Z"/>
</svg>
