<svg id="Layer_1" viewBox="0 0 24 24" xmlns="http://www.w3.org/2000/svg" data-name="Layer 1"><path d="m6.996 1.825c.036.274-.157.524-.431.561-1.675.217-3.01.47-3.592.587-.117.582-.37 1.917-.587 3.592-.032.252-.248.436-.495.436-.299.003-.537-.268-.496-.564.298-2.299.652-3.925.667-3.993.042-.19.19-.339.381-.381.068-.015 1.694-.369 3.993-.668.27-.039.525.157.56.432zm-5.372 13.174c.276-.019.484-.258.465-.533-.059-.865-.089-1.694-.089-2.466s.03-1.601.089-2.466c.019-.275-.189-.515-.465-.533-.268-.026-.514.19-.533.465-.06.888-.091 1.74-.091 2.534s.031 1.646.091 2.534c.018.276.261.484.533.465zm4.941 6.615c-1.675-.217-3.01-.47-3.592-.587-.117-.582-.37-1.917-.587-3.592-.035-.274-.29-.471-.56-.432-.274.036-.467.286-.431.561.298 2.299.652 3.925.667 3.993.042.19.19.339.381.381.068.015 1.694.369 3.993.668.269.036.526-.156.56-.432.036-.274-.157-.524-.431-.561zm7.901.297c-1.731.117-3.204.117-4.932 0-.28-.023-.515.19-.533.465-.019.275.189.515.465.533.887.061 1.74.091 2.534.091s1.646-.03 2.534-.091c.275-.019.483-.258.465-.533-.02-.275-.262-.487-.533-.465zm7.709-4.907c-.283-.039-.524.158-.561.432-.217 1.675-.47 3.01-.587 3.592-.582.117-1.917.37-3.592.587-.273.036-.467.286-.432.561s.292.468.561.432c2.299-.299 3.925-.653 3.993-.668.19-.042.339-.19.381-.381.015-.068.369-1.694.668-3.993.035-.274-.158-.524-.432-.561zm.734-7.538c-.02-.275-.265-.495-.533-.465-.275.019-.483.258-.465.533.059.865.089 1.694.089 2.466s-.03 1.601-.089 2.466c-.021.287.212.537.5.534.26 0 .479-.202.498-.466.061-.888.091-1.74.091-2.534s-.03-1.646-.091-2.534zm-5.474-7.08c1.675.217 3.01.47 3.592.587.117.582.37 1.917.587 3.592.033.252.248.436.495.436.299.003.537-.268.497-.564-.299-2.299-.653-3.925-.668-3.993-.042-.19-.19-.339-.381-.381-.068-.015-1.694-.369-3.993-.668-.269-.035-.524.157-.561.432-.035.274.158.524.432.561zm-2.901-1.295c-1.776-.121-3.295-.121-5.068 0-.275.019-.483.258-.465.533.018.276.261.484.533.465 1.729-.117 3.202-.117 4.932 0 .274.019.514-.189.533-.465.019-.275-.189-.515-.465-.533z"/></svg>